# xmcd CD database file
#
# Track frame offsets:
#	151
#	6218
#	10665
#	23357
#	31264
#	41509
#	48396
#	54750
#	64421
#	69416
#	81344
#
# Disc length: 1225 seconds
#
# Revision: 0
# Processed by: cddbd v1.5.2PL0 Copyright (c) Steve Scherf et al.
# Submitted via: CD2WAV32(JP) R3.22
#
DISCID=7b04c70b
DTITLE=Other - Children's Song2
DYEAR=2005
DGENRE=Other
TTITLE0=The farmer in the dell
TTITLE1=I'm A Little Teapot
TTITLE2=London bridge is falling down
TTITLE3=Mary Had a Little Lamb
TTITLE4=Mulberry Bush
TTITLE5=My Bonnie
TTITLE6=Skip To My Lou
TTITLE7=This Old Man
TTITLE8=Three Blind Mice
TTITLE9=Twinkle, Twinkle, Little Star
TTITLE10=Yankee Doodle
EXTD=
EXTT0=
EXTT1=
EXTT2=
EXTT3=
EXTT4=
EXTT5=
EXTT6=
EXTT7=
EXTT8=
EXTT9=
EXTT10=
PLAYORDER=
